<?xml version="1.0" standalone="no"?>
<!DOCTYPE svg PUBLIC "-//W3C//DTD SVG 20010904//EN"
 "http://www.w3.org/TR/2001/REC-SVG-20010904/DTD/svg10.dtd">
<svg version="1.0" xmlns="http://www.w3.org/2000/svg"
 width="1080.000000pt" height="1080.000000pt" viewBox="0 0 1080.000000 1080.000000"
 preserveAspectRatio="xMidYMid meet">
<metadata>
Created by potrace 1.14, written by Peter Selinger 2001-2017
</metadata>
<g transform="translate(0.000000,1080.000000) scale(0.100000,-0.100000)"
fill="#000000" stroke="none">
<path d="M5363 10003 c-56 -173 -98 -345 -123 -503 -5 -36 -12 -76 -14 -90 -3
-14 -7 -47 -10 -75 -6 -49 -13 -109 -21 -170 -2 -16 -7 -68 -10 -115 -4 -47
-8 -103 -10 -125 -22 -255 -22 -965 0 -1350 2 -38 7 -124 10 -190 4 -66 8
-142 10 -170 1 -27 6 -97 10 -155 3 -58 8 -125 10 -150 2 -25 7 -85 10 -135 7
-91 11 -145 20 -245 2 -30 7 -89 10 -130 3 -41 8 -95 10 -120 3 -25 7 -76 10
-115 7 -91 14 -169 20 -225 4 -40 12 -125 20 -215 9 -111 17 -194 20 -220 3
-25 11 -109 20 -215 1 -14 3 -42 3 -63 l2 -38 41 3 c41 3 42 4 44 43 1 22 5
69 9 105 6 61 10 97 21 228 3 28 7 76 10 105 3 28 7 79 10 112 3 33 8 76 10
95 2 19 7 73 10 120 3 47 8 101 10 120 2 19 6 71 10 115 3 44 8 96 10 115 2
19 7 71 10 115 4 44 8 100 10 125 2 25 6 83 10 130 3 47 8 105 10 130 2 25 7
90 10 145 4 55 8 119 10 142 2 23 7 100 10 170 4 70 8 155 10 188 25 436 26
1138 0 1480 -5 71 -16 189 -20 227 -37 293 -53 389 -101 583 -28 114 -94 315
-103 315 -4 0 -21 -44 -38 -97z"/>
<path d="M2689 10006 c-2 -2 -55 -7 -116 -11 -62 -3 -123 -8 -135 -10 -13 -2
-50 -6 -83 -10 -33 -3 -69 -8 -80 -10 -11 -2 -38 -7 -60 -10 -36 -5 -118 -19
-171 -29 -492 -96 -917 -309 -1190 -596 -121 -128 -219 -279 -288 -444 l-16
-39 47 7 c75 10 111 16 146 22 73 13 473 12 577 -2 432 -57 831 -199 1217
-433 65 -40 127 -77 138 -84 11 -7 22 -14 25 -17 3 -3 28 -20 55 -39 294 -202
614 -496 880 -811 409 -483 758 -1109 920 -1651 54 -180 102 -384 120 -509 3
-25 8 -54 10 -65 2 -11 4 -32 4 -46 l1 -27 145 0 c131 0 145 1 141 16 -3 10
-23 87 -45 172 -152 587 -354 1205 -602 1850 -44 113 -83 214 -88 225 -5 11
-35 83 -66 160 -53 131 -90 219 -121 290 -7 17 -64 152 -128 301 -63 149 -126
296 -139 325 -14 30 -48 110 -77 179 -28 69 -58 139 -65 155 -18 43 -78 189
-110 270 -15 39 -31 79 -36 90 -15 36 -51 130 -53 140 -1 6 -9 26 -17 45 -18
42 -126 366 -165 497 -18 61 -33 93 -44 96 -19 5 -526 8 -531 3z"/>
<path d="M7554 9976 c-47 -223 -349 -1024 -571 -1516 -12 -25 -59 -135 -106
-245 -336 -789 -465 -1118 -657 -1675 -48 -140 -90 -262 -93 -270 -3 -8 -10
-31 -15 -50 -5 -19 -35 -118 -66 -220 -77 -252 -121 -404 -142 -485 -11 -44
-10 -40 -48 -183 -20 -74 -36 -135 -36 -136 0 -2 65 -4 145 -4 142 -1 145 0
146 21 2 69 34 249 74 413 105 427 302 877 573 1309 42 66 78 122 81 125 4 3
20 25 36 50 17 25 33 47 38 48 4 2 7 10 7 17 0 7 3 15 8 17 4 2 34 39 66 83
52 70 161 208 191 241 6 6 42 46 80 89 286 321 678 651 978 826 33 19 73 42
90 53 86 51 372 190 412 200 6 2 24 9 40 15 153 64 415 133 620 165 205 32
571 29 756 -6 92 -17 94 -15 49 80 -250 531 -777 871 -1560 1007 -115 20 -214
33 -296 41 -38 3 -87 8 -109 11 -22 3 -185 6 -362 8 l-322 2 -7 -31z"/>
<path d="M794 7725 c-94 -17 -135 -30 -219 -72 -95 -48 -185 -118 -186 -146
-6 -165 -92 -349 -226 -485 -24 -24 -43 -45 -43 -46 0 -4 59 1 101 8 49 8 171
52 244 89 57 28 214 124 225 137 3 4 27 21 54 40 49 33 52 34 155 34 133 0
215 -10 371 -49 36 -9 76 -18 89 -21 71 -15 436 -143 534 -188 18 -8 64 -28
102 -44 118 -50 232 -103 435 -203 107 -53 197 -95 199 -93 5 4 -307 314 -404
401 -165 147 -387 314 -540 405 -162 97 -382 189 -515 217 -30 6 -66 14 -80
16 -57 12 -230 12 -296 0z"/>
<path d="M9789 7736 c-2 -2 -31 -6 -64 -10 -307 -32 -736 -270 -1147 -636 -96
-85 -411 -400 -406 -405 2 -2 57 23 122 57 97 49 318 154 493 234 45 20 272
111 368 146 144 53 341 109 500 143 60 12 152 19 245 19 l105 -1 127 -86 c70
-48 159 -102 198 -122 90 -45 230 -92 297 -99 l53 -5 -71 81 c-112 130 -180
276 -194 412 -6 70 -15 81 -107 142 -124 83 -254 123 -414 129 -56 2 -103 3
-105 1z"/>
<path d="M2349 5777 c-2 -3 -32 -7 -65 -11 -179 -18 -412 -109 -588 -229 -111
-75 -109 -68 -45 -135 31 -31 73 -77 95 -101 21 -25 46 -52 54 -61 100 -106
470 -600 470 -626 0 -4 7 -16 17 -26 9 -10 21 -27 27 -37 6 -11 47 -80 91
-153 44 -73 88 -149 98 -168 11 -19 29 -53 42 -75 76 -133 248 -499 316 -675
16 -41 34 -84 39 -95 13 -29 93 -254 126 -357 15 -49 32 -88 36 -88 13 0 102
52 168 98 184 131 363 342 458 542 37 78 76 191 86 244 6 34 15 97 21 146 l5
45 -63 23 c-149 53 -287 179 -360 327 -131 266 -75 579 140 780 l53 50 -42 65
c-55 86 -205 234 -298 296 -219 144 -444 213 -721 221 -85 2 -157 2 -160 0z"/>
<path d="M8160 5773 c-21 -3 -129 -25 -194 -38 -104 -23 -309 -117 -415 -192
-36 -26 -102 -83 -146 -127 -89 -90 -104 -108 -146 -175 l-29 -45 62 -61 c134
-131 201 -289 201 -475 -1 -108 -18 -185 -62 -282 -76 -163 -194 -269 -393
-351 -36 -15 -37 -16 -32 -64 32 -328 211 -640 504 -878 71 -58 207 -145 226
-145 10 0 15 11 29 63 2 4 3 8 5 10 1 1 3 9 5 17 5 19 65 192 103 295 95 259
252 602 381 835 23 41 47 87 52 103 6 15 15 27 20 27 5 0 9 4 9 10 0 39 374
599 499 746 14 17 38 46 53 65 55 71 146 174 251 286 33 34 56 66 53 71 -3 5
-31 27 -63 48 -32 21 -60 42 -63 45 -11 13 -165 92 -237 121 -69 27 -204 65
-293 83 -39 8 -341 14 -380 8z"/>
<path d="M4760 3963 c-1 -116 -15 -343 -25 -413 -2 -14 -6 -52 -10 -85 -55
-520 -240 -1132 -465 -1534 -47 -86 -136 -229 -150 -241 -3 -3 -25 -32 -49
-65 -25 -33 -47 -62 -50 -65 -3 -3 -19 -19 -34 -37 l-29 -31 29 -34 c45 -53
274 -281 318 -316 22 -18 85 -63 140 -101 471 -322 925 -414 1370 -277 44 14
82 25 85 25 5 0 64 26 183 80 119 54 274 152 412 260 70 54 272 252 333 324
l32 37 -61 73 c-179 213 -344 513 -464 842 -34 94 -109 329 -120 378 -3 12
-18 77 -34 145 -40 165 -80 391 -97 537 -3 33 -8 68 -10 77 -3 17 -11 133 -19
263 -2 33 -4 95 -4 138 l-1 77 -119 0 -119 0 3 -82 c5 -120 15 -304 20 -341 2
-18 6 -59 10 -92 12 -121 17 -153 40 -290 14 -77 27 -153 30 -170 3 -16 9 -47
15 -67 5 -21 15 -55 20 -75 29 -110 64 -222 105 -343 57 -169 79 -275 71 -345
-16 -145 -161 -426 -355 -685 -78 -105 -95 -124 -187 -217 -154 -154 -196
-154 -349 1 -76 76 -187 208 -223 265 -9 14 -19 28 -22 31 -20 18 -144 224
-192 319 -132 259 -135 322 -29 643 61 182 131 432 146 518 18 104 45 273 49
313 4 26 8 66 11 90 12 108 25 295 29 430 l3 97 -118 0 -119 0 0 -57z"/>
</g>
</svg>
